<svg xmlns="http://www.w3.org/2000/svg" version="1.1" xmlns:xlink="http://www.w3.org/1999/xlink" xmlns:svgjs="http://svgjs.dev/svgjs" width="1000" height="625" viewBox="0 0 1000 625"><g transform="matrix(1,0,0,1,0,0)"><svg viewBox="0 0 512 320" data-background-color="#ffffff" preserveAspectRatio="xMidYMid meet" height="625" width="1000" xmlns="http://www.w3.org/2000/svg" xmlns:xlink="http://www.w3.org/1999/xlink"><g id="tight-bounds" transform="matrix(1,0,0,1,0,0)"><svg viewBox="0 0 512 320" height="320" width="512"><g><svg></svg></g><g><svg viewBox="0 0 512 320" height="320" width="512"><g><path d="M96 160c0-88.366 71.634-160 160-160 88.366 0 160 71.634 160 160 0 88.366-71.634 160-160 160-88.366 0-160-71.634-160-160zM256 313.329c84.681 0 153.329-68.648 153.329-153.329 0-84.681-68.648-153.329-153.329-153.329-84.681 0-153.329 68.648-153.329 153.329 0 84.681 68.648 153.329 153.329 153.329z" fill="#ed1703" fill-rule="nonzero" stroke="none" stroke-width="1" stroke-linecap="butt" stroke-linejoin="miter" stroke-miterlimit="10" stroke-dasharray="" stroke-dashoffset="0" font-family="none" font-weight="none" font-size="none" text-anchor="none" style="mix-blend-mode: normal" data-fill-palette-color="tertiary"></path></g><g transform="matrix(1,0,0,1,128,94.65207480838697)"><svg viewBox="0 0 256 130.69585038322606" height="130.69585038322606" width="256"><g><svg viewBox="0 0 256 130.69585038322606" height="130.69585038322606" width="256"><g transform="matrix(1,0,0,1,0,93.70685308200125)"><svg viewBox="0 0 256 36.98899730122483" height="36.98899730122483" width="256"><g id="textblocktransform"><svg viewBox="0 0 256 36.98899730122483" height="36.98899730122483" width="256" id="textblock"><g><svg viewBox="0 0 256 36.98899730122483" height="36.98899730122483" width="256"><g transform="matrix(1,0,0,1,0,0)"><svg width="256" viewBox="1.5 -33.9 240.83 34.8" height="36.98899730122483" data-palette-color="#ed1703"><path d="M11.85 0.9L11.85 0.9Q9.1 0.9 6.25 0.23 3.4-0.45 1.5-1.55L1.5-1.55 1.75-8.35 2.25-8.35 3.8-5.1Q4.5-3.7 5.3-2.63 6.1-1.55 7.5-0.95L7.5-0.95Q8.5-0.45 9.43-0.28 10.35-0.1 11.5-0.1L11.5-0.1Q14.55-0.1 16.32-1.75 18.1-3.4 18.1-6L18.1-6Q18.1-8.45 16.9-9.83 15.7-11.2 13.05-12.5L13.05-12.5 11-13.4Q6.7-15.3 4.28-17.78 1.85-20.25 1.85-24.35L1.85-24.35Q1.85-27.3 3.38-29.45 4.9-31.6 7.63-32.75 10.35-33.9 14-33.9L14-33.9Q16.65-33.9 19.03-33.2 21.4-32.5 23.15-31.3L23.15-31.3 22.85-25.3 22.35-25.3 20.3-29.05Q19.45-30.8 18.6-31.53 17.75-32.25 16.65-32.55L16.65-32.55Q16-32.75 15.45-32.83 14.9-32.9 14.05-32.9L14.05-32.9Q11.5-32.9 9.75-31.43 8-29.95 8-27.45L8-27.45Q8-24.9 9.35-23.38 10.7-21.85 13.3-20.65L13.3-20.65 15.6-19.65Q20.4-17.55 22.5-15.18 24.6-12.8 24.6-9.05L24.6-9.05Q24.6-4.65 21.28-1.88 17.95 0.9 11.85 0.9ZM49.6 0L33.85 0 33.85-0.5 35.9-1Q37.95-1.45 37.95-3.5L37.95-3.5 37.95-32 33.7-32Q31.85-32 31.05-31.03 30.25-30.05 29.35-28.35L29.35-28.35 27.55-24.85 27.05-24.85 27.3-33 56.15-33 56.35-24.85 55.85-24.85 54.05-28.35Q53.2-30.05 52.4-31.03 51.6-32 49.75-32L49.75-32 45.5-32 45.5-3.5Q45.5-1.45 47.55-1L47.55-1 49.6-0.5 49.6 0ZM71.3 0L58.5 0 58.5-0.5 59.55-0.85Q60.55-1.2 60.85-1.78 61.15-2.35 61.15-3.4L61.15-3.4 61.15-29.55Q61.15-30.55 60.87-31.13 60.6-31.7 59.65-32.05L59.65-32.05 58.5-32.5 58.5-33 72.8-33Q78.7-33 81.84-30.78 85-28.55 85-24.6L85-24.6Q85-22.4 83.34-20.2 81.7-18 78.15-16.8L78.15-16.8 85.09-3Q85.55-2.15 86.12-1.63 86.7-1.1 87.65-0.7L87.65-0.7 88.3-0.45 88.3 0 79.34 0 71.95-15.75 68.55-15.75 68.55-3.4Q68.55-2.45 68.84-1.85 69.15-1.25 70.09-0.95L70.09-0.95 71.3-0.5 71.3 0ZM68.55-32L68.55-16.75 70.95-16.75Q74.55-16.75 76.15-18.68 77.75-20.6 77.75-24.4L77.75-24.4Q77.75-28.25 76.25-30.13 74.75-32 71.2-32L71.2-32 68.55-32ZM96.09 0L89.19 0 89.19-0.5 90.44-0.95Q91.44-1.35 91.99-1.93 92.54-2.5 92.89-3.55L92.89-3.55 103.19-33.1 107.44-33.1 117.59-3.35Q117.99-2.25 118.49-1.68 118.99-1.1 120.04-0.7L120.04-0.7 120.64-0.5 120.64 0 107.94 0 107.94-0.5 108.69-0.75Q109.74-1.15 109.97-1.88 110.19-2.6 109.89-3.6L109.89-3.6 107.54-10.8 96.44-10.8 94.04-3.75Q93.69-2.65 93.82-2 93.94-1.35 94.99-0.95L94.99-0.95 96.09-0.5 96.09 0ZM102.19-27.35L96.79-11.8 107.24-11.8 102.19-27.35ZM144.84 0L129.09 0 129.09-0.5 131.14-1Q133.19-1.45 133.19-3.5L133.19-3.5 133.19-32 128.94-32Q127.09-32 126.29-31.03 125.49-30.05 124.59-28.35L124.59-28.35 122.79-24.85 122.29-24.85 122.54-33 151.39-33 151.59-24.85 151.09-24.85 149.29-28.35Q148.44-30.05 147.64-31.03 146.84-32 144.99-32L144.99-32 140.74-32 140.74-3.5Q140.74-1.45 142.79-1L142.79-1 144.84-0.5 144.84 0ZM178.69 0L153.74 0 153.74-0.5 154.89-0.95Q155.74-1.3 156.06-1.88 156.39-2.45 156.39-3.45L156.39-3.45 156.39-29.55Q156.39-30.55 156.11-31.13 155.84-31.7 154.89-32.05L154.89-32.05 153.74-32.5 153.74-33 177.69-33 177.99-25.3 177.49-25.3 175.34-30Q174.89-30.9 174.39-31.45 173.89-32 172.89-32L172.89-32 163.89-32 163.89-17.55 169.24-17.55Q170.24-17.55 170.76-18.07 171.29-18.6 171.69-19.5L171.69-19.5 172.69-21.5 173.19-21.5 173.19-12.5 172.69-12.5 171.69-14.6Q171.24-15.5 170.74-16.03 170.24-16.55 169.24-16.55L169.24-16.55 163.89-16.55 163.89-1 173.99-1Q174.99-1 175.54-1.53 176.09-2.05 176.44-3L176.44-3 178.49-7.7 178.99-7.7 178.69 0ZM198.59 0.9L198.59 0.9Q193.49 0.9 189.61-1.23 185.74-3.35 183.56-7.28 181.39-11.2 181.39-16.55L181.39-16.55Q181.39-21.75 183.54-25.65 185.69-29.55 189.76-31.73 193.84-33.9 199.64-33.9L199.64-33.9Q202.29-33.9 204.56-33.3 206.84-32.7 208.89-31.55L208.89-31.55 209.09-24.55 208.59-24.55 205.79-29.75Q205.14-31 204.59-31.55 204.04-32.1 203.19-32.4L203.19-32.4Q202.39-32.65 201.71-32.77 201.04-32.9 199.94-32.9L199.94-32.9Q196.84-32.9 194.46-31.25 192.09-29.6 190.79-26 189.49-22.4 189.49-16.55L189.49-16.55Q189.49-10.75 190.71-7.1 191.94-3.45 194.19-1.78 196.44-0.1 199.39-0.1L199.39-0.1Q199.84-0.1 200.26-0.18 200.69-0.25 201.09-0.35L201.09-0.35Q202.04-0.5 202.34-1.15 202.64-1.8 202.64-2.7L202.64-2.7 202.64-12.6Q202.64-14.55 200.64-15L200.64-15 198.34-15.6 198.34-16.1 212.44-16.1 212.44-15.6 211.74-15.4Q209.84-14.8 209.84-12.9L209.84-12.9 209.84-2.05Q207.24-0.6 204.56 0.15 201.89 0.9 198.59 0.9ZM235.48 0L221.43 0 221.43-0.5 222.93-0.9Q224.68-1.4 224.68-3.4L224.68-3.4 224.68-12.9 216.43-29.7Q215.98-30.7 215.61-31.2 215.23-31.7 214.48-32.05L214.48-32.05 213.58-32.5 213.58-33 226.98-33 226.98-32.5 226.08-32.15Q224.98-31.7 224.88-30.93 224.78-30.15 225.28-29L225.28-29 231.18-15.9 237.78-29.5Q238.18-30.3 238.11-31.15 238.03-32 237.03-32.25L237.03-32.25 236.33-32.5 236.33-33 242.33-33 242.33-32.5 241.38-32.15Q240.43-31.8 239.98-31.18 239.53-30.55 239.08-29.6L239.08-29.6 232.23-15.2 232.23-3.4Q232.23-2.4 232.61-1.78 232.98-1.15 233.93-0.9L233.93-0.9 235.48-0.5 235.48 0Z" opacity="1" transform="matrix(1,0,0,1,0,0)" fill="#ed1703" class="wordmark-text-0" data-fill-palette-color="primary" id="text-0"></path></svg></g></svg></g></svg></g></svg></g><g transform="matrix(1,0,0,1,85.51268072244136,0)"><svg viewBox="0 0 84.9746385551173 84.9746385551173" height="84.9746385551173" width="84.9746385551173"><g><svg></svg></g><g id="icon-0"><svg viewBox="0 0 84.9746385551173 84.9746385551173" height="84.9746385551173" width="84.9746385551173"><g><rect width="77.26397690844925" height="77.26397690844925" x="3.8553308233340218" y="3.8553308233340218" fill="#ed1703" data-fill-palette-color="accent"></rect><rect width="77.26397690844925" height="77.26397690844925" x="-3.1086244689504383e-15" y="7.710661646668047" fill="#ed1703" opacity="0.5" data-fill-palette-color="accent"></rect></g><g transform="matrix(1,0,0,1,18.61109055386627,11.015230923811501)"><svg viewBox="0 0 47.75245744738476 62.94417670749429" height="62.94417670749429" width="47.75245744738476"><g><svg xmlns="http://www.w3.org/2000/svg" xmlns:xlink="http://www.w3.org/1999/xlink" version="1.1" x="0" y="0" viewBox="13.495007653083345 0.4968898275542236 75.11076179471104 99.00611017244576" enable-background="new 0 0 100 100" xml:space="preserve" height="62.94417670749429" width="47.75245744738476" class="icon-z$-0" data-fill-palette-color="background" id="z$-0"><g fill="#ffffff" data-fill-palette-color="background"><path d="M57.913 66.773c-0.637 7.737 2.427 9.601 4.542 13.011 2.645 4.267 7.762 9.512 8.657 14.883 0.408 2.443 0.552 3.936 0.588 4.836H13.551c0.049-3.289-1.729-14.421 11.406-28.273 4.422-4.664 16.654-14.777 8.795-25.569-2.759-3.787-4.611-8.16-5.421-12.743l-13.96 2.463c-0.497 0.087-0.7-0.421-0.28-0.701 6.986-4.646 5.465-7.621 7.743-14.775C23.89 13.447 30.982 3.921 46.386 1.09c15.443-2.608 25.392 3.913 29.532 9.278 4.589 5.943 4.178 9.258 12.329 11.235 0.49 0.119 0.474 0.667-0.023 0.754l-13.165 2.321c0.553 0.995 1.359 2.228 1.028 2.836-0.961 1.771-1.401 2.692 0.293 5.093 1.104 1.563 4.286 6.256 4.996 7.549 0.989 1.805-4.711 1.862-4.213 3.233 0.229 0.627 0.997 2.207 1.245 2.819 0.298 0.739-1.475 1.21-1.486 1.726 0.002 0.197 1.094 0.302 0.922 1.591-0.104 0.792-1.705 0.172-1.797 3.187-0.048 1.636 1.911 3.917-1.362 5.99-1.919 1.215-6.428-0.182-10.298 0.306l0.146 0.396c-1.453 0.171-2.763 0.698-3.797 1.47l-0.141-0.387C59.185 61.637 58.177 63.574 57.913 66.773L57.913 66.773z" fill="#ffffff" data-fill-palette-color="background"></path></g></svg></g></svg></g></svg></g></svg></g><g></g></svg></g></svg></g></svg></g><defs></defs></svg><rect width="512" height="320" fill="none" stroke="none" visibility="hidden"></rect></g></svg></g></svg>