<svg xmlns="http://www.w3.org/2000/svg" version="1.1" xmlns:xlink="http://www.w3.org/1999/xlink" xmlns:svgjs="http://svgjs.dev/svgjs" width="128" height="128" viewBox="0 0 128 128"><g transform="matrix(0.6130952380952381,0,0,0.6130952380952381,24.999755700836253,12.760752631578946)"><svg viewBox="0 0 72 95" data-background-color="#ffffff" preserveAspectRatio="xMidYMid meet" height="168" width="128" xmlns="http://www.w3.org/2000/svg" xmlns:xlink="http://www.w3.org/1999/xlink"><g id="tight-bounds" transform="matrix(1,0,0,1,-0.2182224633885994,-0.24049999999999727)"><svg viewBox="0 0 72.43644492677721 95.481" height="95.481" width="72.43644492677721"><g><svg viewBox="0 0 72.43644492677721 95.481" height="95.481" width="72.43644492677721"><g><svg viewBox="0 0 72.43644492677721 95.481" height="95.481" width="72.43644492677721"><g id="textblocktransform"><svg viewBox="0 0 72.43644492677721 95.481" height="95.481" width="72.43644492677721" id="textblock"><g><svg viewBox="0 0 72.43644492677721 95.481" height="95.481" width="72.43644492677721"><g><svg viewBox="0 0 72.43644492677721 95.481" height="95.481" width="72.43644492677721"><g><svg xmlns="http://www.w3.org/2000/svg" xmlns:xlink="http://www.w3.org/1999/xlink" version="1.1" x="0" y="0" viewBox="13.495007653083345 0.4968898275542236 75.11076179471104 99.00611017244576" enable-background="new 0 0 100 100" xml:space="preserve" height="95.481" width="72.43644492677721" class="icon-icon-0" data-fill-palette-color="accent" id="icon-0"><g fill="#ed1703" data-fill-palette-color="accent"><path d="M57.913 66.773c-0.637 7.737 2.427 9.601 4.542 13.011 2.645 4.267 7.762 9.512 8.657 14.883 0.408 2.443 0.552 3.936 0.588 4.836H13.551c0.049-3.289-1.729-14.421 11.406-28.273 4.422-4.664 16.654-14.777 8.795-25.569-2.759-3.787-4.611-8.16-5.421-12.743l-13.96 2.463c-0.497 0.087-0.7-0.421-0.28-0.701 6.986-4.646 5.465-7.621 7.743-14.775C23.89 13.447 30.982 3.921 46.386 1.09c15.443-2.608 25.392 3.913 29.532 9.278 4.589 5.943 4.178 9.258 12.329 11.235 0.49 0.119 0.474 0.667-0.023 0.754l-13.165 2.321c0.553 0.995 1.359 2.228 1.028 2.836-0.961 1.771-1.401 2.692 0.293 5.093 1.104 1.563 4.286 6.256 4.996 7.549 0.989 1.805-4.711 1.862-4.213 3.233 0.229 0.627 0.997 2.207 1.245 2.819 0.298 0.739-1.475 1.21-1.486 1.726 0.002 0.197 1.094 0.302 0.922 1.591-0.104 0.792-1.705 0.172-1.797 3.187-0.048 1.636 1.911 3.917-1.362 5.99-1.919 1.215-6.428-0.182-10.298 0.306l0.146 0.396c-1.453 0.171-2.763 0.698-3.797 1.47l-0.141-0.387C59.185 61.637 58.177 63.574 57.913 66.773L57.913 66.773z" fill="#ed1703" data-fill-palette-color="accent"></path></g></svg></g></svg></g></svg></g></svg></g></svg></g></svg></g><defs></defs></svg><rect width="72.43644492677721" height="95.481" fill="none" stroke="none" visibility="hidden"></rect></g></svg></g></svg>